<mxfile host="app.diagrams.net" modified="2024-01-23T15:04:06.928Z" agent="Mozilla/5.0 (Windows NT 10.0; Win64; x64) AppleWebKit/537.36 (KHTML, like Gecko) Chrome/120.0.0.0 Safari/537.36" version="22.1.21" etag="Uof8rRFxZznR0ThLTbB6" type="github">
  <diagram name="Trang-1" id="F5vuXaiWZ-aWUOsvmLSu">
    <mxGraphModel>
      <root>
        <mxCell id="0" />
        <mxCell id="1" parent="0" />
      </root>
    </mxGraphModel>
  </diagram>
</mxfile>
